<!DOCTYPE svg PUBLIC "-//W3C//DTD SVG 20010904//EN" "http://www.w3.org/TR/2001/REC-SVG-20010904/DTD/svg10.dtd">
<svg version="1.0" xmlns="http://www.w3.org/2000/svg" width="319px" height="256px" viewBox="0 0 3190 2560" preserveAspectRatio="xMidYMid meet">
<g id="layer101" fill="#ffffff" stroke="none">
 <path d="M1295 2534 c-38 -8 -95 -19 -125 -25 -66 -14 -283 -81 -325 -102 -16 -8 -61 -30 -100 -48 -38 -18 -81 -41 -95 -49 -116 -75 -154 -103 -216 -157 -40 -34 -75 -59 -80 -55 -4 4 -4 2 -1 -4 7 -11 -37 -56 -47 -48 -3 2 -4 1 -1 -3 3 -4 -10 -23 -29 -42 -113 -120 -224 -340 -262 -520 -18 -86 -18 -326 0 -412 38 -180 149 -400 262 -520 19 -19 32 -38 29 -42 -3 -4 -2 -5 1 -3 10 7 54 -36 47 -47 -3 -6 -1 -7 5 -3 5 3 12 3 14 -2 7 -17 137 -120 218 -173 96 -63 246 -137 353 -175 86 -30 274 -76 375 -92 94 -15 460 -15 554 0 101 16 289 62 375 92 216 76 456 225 599 373 17 18 33 31 35 30 2 -1 3 0 1 2 -1 3 13 21 32 40 47 50 136 185 173 261 78 163 103 277 103 465 0 188 -25 302 -103 465 -37 76 -126 211 -173 261 -19 19 -32 38 -29 42 3 4 2 5 -1 3 -10 -7 -54 36 -47 47 3 6 2 7 -4 4 -5 -4 -23 7 -39 24 -67 70 -216 172 -344 234 -41 21 -88 44 -105 52 -42 20 -258 88 -325 102 -198 39 -215 41 -434 40 -145 -1 -245 -6 -291 -15z m585 -25 c140 -21 362 -79 384 -100 6 -5 16 -9 24 -9 41 0 310 -148 404 -222 186 -148 291 -284 408 -528 27 -58 70 -246 70 -308 l0 -52 -780 0 -780 0 0 620 0 620 103 -5 c56 -4 131 -10 167 -16z m-565 -434 c24 -23 25 -30 25 -140 l0 -115 -100 0 -100 0 0 40 0 40 60 0 60 0 0 60 0 60 -170 0 -170 0 0 -170 0 -170 170 0 c163 0 170 1 170 20 0 17 7 20 40 20 39 0 40 -1 40 -35 0 -25 -8 -44 -25 -60 -24 -25 -25 -25 -223 -25 l-199 0 -24 26 c-24 25 -24 28 -24 226 l0 200 28 24 c28 24 31 24 223 24 194 0 195 0 219 -25z m265 -1435 l0 -620 -73 0 c-160 0 -440 60 -617 132 -142 58 -303 149 -405 229 -167 132 -300 308 -395 519 -28 63 -70 246 -70 308 l0 52 780 0 780 0 0 -620z m1590 568 c0 -62 -42 -245 -70 -308 -95 -211 -228 -387 -395 -519 -102 -80 -263 -171 -405 -229 -177 -72 -457 -132 -617 -132 l-73 0 0 620 0 620 780 0 780 0 0 -52z"/>
 <path d="M1883 2092 c-25 -19 -43 -61 -43 -98 0 -22 3 -24 55 -24 48 0 55 2 55 20 0 19 7 20 158 20 l157 0 0 -55 0 -55 -175 0 c-138 0 -180 -3 -196 -15 -12 -8 -23 -13 -25 -12 -2 1 -3 0 -2 -2 2 -2 -3 -11 -10 -19 -7 -10 -12 -48 -12 -106 0 -102 15 -135 71 -155 46 -17 346 -14 388 3 45 19 66 52 66 104 l0 43 -52 -3 c-46 -3 -53 -6 -56 -25 -3 -23 -5 -23 -158 -23 l-154 0 0 55 0 55 178 0 c172 0 178 1 207 24 29 23 30 27 33 123 4 95 3 101 -23 131 l-27 32 -206 0 c-181 0 -210 -3 -229 -18z"/>
 <path d="M884 950 c-49 -19 -54 -45 -54 -258 0 -269 -7 -263 263 -261 95 1 183 4 197 8 33 9 70 66 70 107 l0 34 -55 0 c-48 0 -55 -2 -55 -20 0 -19 -7 -20 -160 -20 l-160 0 0 155 0 155 160 0 160 0 0 -45 0 -45 -60 0 -60 0 0 -50 0 -50 115 0 115 0 0 108 c0 119 -16 163 -66 182 -31 12 -381 12 -410 0z"/>
 <path d="M1883 940 c-44 -27 -53 -68 -52 -250 1 -262 -1 -260 311 -260 l218 0 0 55 0 55 -205 0 -205 0 0 155 0 155 205 0 205 0 0 55 0 55 -222 0 c-203 0 -226 -2 -255 -20z"/>
 </g>

</svg>